<svg xmlns="http://www.w3.org/2000/svg" width="107px" height="77px" viewBox="0 0 149 101" fill="none">
<rect width="160" height="115" fill="#EBEBEB"/>
<g clip-path="url(#clip0_2_27)">
<rect width="1440" height="4310" transform="translate(-1010 -3278)" fill="white"/>
<path d="M115.346 9.00098L74.8461 36.6164L33.4199 9.00098V9.00842L33.47 9.04578V47.7147L74.3793 75.9268L115.346 48.804V9.00098Z" fill="#EA4335"/>
<path d="M125.978 2.28365L115.342 9.00085V48.804L148.809 26.3539V12.8296C148.809 12.8296 144.747 -6.48607 125.978 2.28365Z" fill="#FBBC05"/>
<path d="M115.342 48.8042V100.43H140.993C140.993 100.43 148.293 99.7732 148.818 92.5036V26.354L115.342 48.8042Z" fill="#34A853"/>
<path d="M33.4719 100.475V47.715L33.4199 47.6777L33.4719 100.475Z" fill="#C5221F"/>
<path d="M33.418 9.00744L22.8404 2.32753C4.07086 -6.44219 0 12.8661 0 12.8661V26.3899L33.418 47.6763V9.00744Z" fill="#C5221F"/>
<path d="M33.4199 9.00977V47.6788L33.4719 47.7161V9.04712L33.4199 9.00977Z" fill="#C5221F"/>
<path d="M0 26.3999V92.5494C0.51722 99.8268 7.8248 100.476 7.8248 100.476H33.4764L33.418 47.6787L0 26.3999Z" fill="#4285F4"/>
<g style="mix-blend-mode:color">
<rect width="149" height="100" fill="#6B599E"/>
</g>
</g>
<defs>
<clipPath id="clip0_2_27">
<rect width="1440" height="4310" fill="white" transform="translate(-1010 -3278)"/>
</clipPath>
</defs>
</svg>